<mxfile host="Electron" modified="2024-04-30T16:41:02.801Z" agent="Mozilla/5.0 (Windows NT 10.0; Win64; x64) AppleWebKit/537.36 (KHTML, like Gecko) draw.io/24.2.5 Chrome/120.0.6099.109 Electron/28.1.0 Safari/537.36" version="24.2.5" etag="ESPzHcvXMCbVqrKlZwz5" type="device">
  <diagram id="C5RBs43oDa-KdzZeNtuy" name="Page-1">
    <mxGraphModel dx="1289" dy="849" grid="1" gridSize="12" guides="1" tooltips="1" connect="1" arrows="1" fold="1" page="1" pageScale="1" pageWidth="4681" pageHeight="3300" math="0" shadow="0">
      <root>
        <mxCell id="WIyWlLk6GJQsqaUBKTNV-0" />
        <mxCell id="WIyWlLk6GJQsqaUBKTNV-1" parent="WIyWlLk6GJQsqaUBKTNV-0" />
        <mxCell id="jW8XHMWX3CUndd-du9YS-40" value="" style="group" vertex="1" connectable="0" parent="WIyWlLk6GJQsqaUBKTNV-1">
          <mxGeometry x="360" y="276" width="1116" height="1104" as="geometry" />
        </mxCell>
        <mxCell id="jW8XHMWX3CUndd-du9YS-0" value="Asteroid&lt;div&gt;&lt;span style=&quot;font-weight: normal;&quot;&gt;(this class defines the properties of an asteroid)&lt;/span&gt;&lt;/div&gt;" style="swimlane;fontStyle=1;align=center;verticalAlign=top;childLayout=stackLayout;horizontal=1;startSize=40;horizontalStack=0;resizeParent=1;resizeParentMax=0;resizeLast=0;collapsible=1;marginBottom=0;whiteSpace=wrap;html=1;" vertex="1" parent="jW8XHMWX3CUndd-du9YS-40">
          <mxGeometry x="768" y="552" width="330" height="312" as="geometry">
            <mxRectangle x="1956" y="852" width="290" height="40" as="alternateBounds" />
          </mxGeometry>
        </mxCell>
        <mxCell id="jW8XHMWX3CUndd-du9YS-1" value="- MAX_ASTEROID_SPEED: double&lt;div&gt;- configNum,&amp;nbsp;&lt;span style=&quot;background-color: initial;&quot;&gt;id&lt;/span&gt;&lt;span style=&quot;background-color: initial;&quot;&gt;: int&lt;/span&gt;&lt;/div&gt;" style="text;strokeColor=none;fillColor=none;align=left;verticalAlign=top;spacingLeft=4;spacingRight=4;overflow=hidden;rotatable=0;points=[[0,0.5],[1,0.5]];portConstraint=eastwest;whiteSpace=wrap;html=1;" vertex="1" parent="jW8XHMWX3CUndd-du9YS-0">
          <mxGeometry y="40" width="330" height="32" as="geometry" />
        </mxCell>
        <mxCell id="jW8XHMWX3CUndd-du9YS-2" value="" style="line;strokeWidth=1;fillColor=none;align=left;verticalAlign=middle;spacingTop=-1;spacingLeft=3;spacingRight=3;rotatable=0;labelPosition=right;points=[];portConstraint=eastwest;strokeColor=inherit;" vertex="1" parent="jW8XHMWX3CUndd-du9YS-0">
          <mxGeometry y="72" width="330" height="8" as="geometry" />
        </mxCell>
        <mxCell id="jW8XHMWX3CUndd-du9YS-3" value="+ move(long, double, double): void&lt;div&gt;&lt;span style=&quot;white-space: pre;&quot;&gt;&#x9;&lt;/span&gt;allows for the displacement of an asteroid&lt;br&gt;&lt;div&gt;+ generateConfiguration(): void&lt;/div&gt;&lt;div&gt;&lt;span style=&quot;white-space: pre;&quot;&gt;&#x9;&lt;/span&gt;determines what the asteroid&#39;s polygon will look like&lt;br&gt;&lt;/div&gt;&lt;div&gt;+ createRandomAsteroid(): Asteroid&lt;/div&gt;&lt;/div&gt;&lt;div&gt;&lt;span style=&quot;white-space: pre;&quot;&gt;&#x9;&lt;/span&gt;creates a new asteroid object with randomized &lt;span style=&quot;white-space: pre;&quot;&gt;&#x9;&lt;/span&gt;parameters&lt;br&gt;&lt;/div&gt;&lt;div&gt;+&amp;nbsp;&lt;span style=&quot;background-color: initial;&quot;&gt;createRandomMediumAsteroid(): Asteroid&lt;/span&gt;&lt;/div&gt;&lt;div&gt;&lt;span style=&quot;background-color: initial;&quot;&gt;&lt;span style=&quot;white-space: pre;&quot;&gt;&#x9;&lt;/span&gt;derived from&amp;nbsp;&lt;/span&gt;&lt;span style=&quot;background-color: initial;&quot;&gt;createRandomAsteroid()&lt;/span&gt;&lt;span style=&quot;background-color: initial;&quot;&gt;&lt;br&gt;&lt;/span&gt;&lt;/div&gt;&lt;div&gt;&lt;span style=&quot;background-color: initial;&quot;&gt;+&amp;nbsp;&lt;/span&gt;&lt;span style=&quot;background-color: initial;&quot;&gt;createRandomSmallAsteroid(): Asteroid&lt;/span&gt;&lt;/div&gt;&lt;div&gt;&lt;span style=&quot;background-color: initial;&quot;&gt;&lt;span style=&quot;white-space: pre;&quot;&gt;&#x9;&lt;/span&gt;derived from&amp;nbsp;&lt;/span&gt;&lt;span style=&quot;background-color: initial;&quot;&gt;createRandomAsteroid()&lt;/span&gt;&lt;span style=&quot;background-color: initial;&quot;&gt;&lt;br&gt;&lt;/span&gt;&lt;/div&gt;&lt;div&gt;&lt;span style=&quot;background-color: initial;&quot;&gt;+&amp;nbsp;&lt;/span&gt;&lt;span style=&quot;background-color: initial;&quot;&gt;createAsteroid(double, double, int, int): Asteroid&lt;/span&gt;&lt;/div&gt;&lt;div&gt;&lt;span style=&quot;background-color: initial;&quot;&gt;&lt;span style=&quot;white-space: pre;&quot;&gt;&#x9;&lt;/span&gt;creates a new asteroid object with a preset location &lt;span style=&quot;white-space: pre;&quot;&gt;&#x9;&lt;/span&gt;and hitbox size&lt;br&gt;&lt;/span&gt;&lt;/div&gt;&lt;div&gt;&lt;span style=&quot;background-color: initial;&quot;&gt;+ Accessor Functions&lt;/span&gt;&lt;/div&gt;" style="text;strokeColor=none;fillColor=none;align=left;verticalAlign=top;spacingLeft=4;spacingRight=4;overflow=hidden;rotatable=0;points=[[0,0.5],[1,0.5]];portConstraint=eastwest;whiteSpace=wrap;html=1;" vertex="1" parent="jW8XHMWX3CUndd-du9YS-0">
          <mxGeometry y="80" width="330" height="232" as="geometry" />
        </mxCell>
        <mxCell id="jW8XHMWX3CUndd-du9YS-4" value="&lt;div&gt;InteractableObject&lt;/div&gt;&lt;div&gt;&lt;span style=&quot;font-weight: normal;&quot;&gt;(this class defines the base properties of any interactable entitiy)&lt;/span&gt;&lt;/div&gt;" style="swimlane;fontStyle=1;align=center;verticalAlign=top;childLayout=stackLayout;horizontal=1;startSize=60;horizontalStack=0;resizeParent=1;resizeParentMax=0;resizeLast=0;collapsible=1;marginBottom=0;whiteSpace=wrap;html=1;" vertex="1" parent="jW8XHMWX3CUndd-du9YS-40">
          <mxGeometry x="396" y="564" width="330" height="216" as="geometry">
            <mxRectangle x="1488" y="768" width="290" height="40" as="alternateBounds" />
          </mxGeometry>
        </mxCell>
        <mxCell id="jW8XHMWX3CUndd-du9YS-5" value="- xPosition, yPosition, xSpeed, ySpeed, direction: double&lt;div&gt;- hitbox: HitBox&lt;/div&gt;" style="text;strokeColor=none;fillColor=none;align=left;verticalAlign=top;spacingLeft=4;spacingRight=4;overflow=hidden;rotatable=0;points=[[0,0.5],[1,0.5]];portConstraint=eastwest;whiteSpace=wrap;html=1;" vertex="1" parent="jW8XHMWX3CUndd-du9YS-4">
          <mxGeometry y="60" width="330" height="36" as="geometry" />
        </mxCell>
        <mxCell id="jW8XHMWX3CUndd-du9YS-6" value="" style="line;strokeWidth=1;fillColor=none;align=left;verticalAlign=middle;spacingTop=-1;spacingLeft=3;spacingRight=3;rotatable=0;labelPosition=right;points=[];portConstraint=eastwest;strokeColor=inherit;" vertex="1" parent="jW8XHMWX3CUndd-du9YS-4">
          <mxGeometry y="96" width="330" height="8" as="geometry" />
        </mxCell>
        <mxCell id="jW8XHMWX3CUndd-du9YS-7" value="+ move(long, double, double): void&lt;div&gt;&lt;span style=&quot;white-space: pre;&quot;&gt;&#x9;&lt;/span&gt;allows for the displacement of an entity&lt;br&gt;&lt;div&gt;+ turnRight(): void&lt;/div&gt;&lt;div&gt;&lt;span style=&quot;white-space: pre;&quot;&gt;&#x9;&lt;/span&gt;shifts direction angle by 5 clockwise&lt;br&gt;&lt;/div&gt;&lt;div&gt;&lt;div&gt;+ turnLeft(): void&lt;/div&gt;&lt;div&gt;&lt;span style=&quot;white-space: pre;&quot;&gt;&#x9;&lt;/span&gt;shifts direction angle by 5 counterclockwise&lt;/div&gt;&lt;/div&gt;&lt;/div&gt;&lt;div&gt;+ Accessor Functions&lt;/div&gt;" style="text;strokeColor=none;fillColor=none;align=left;verticalAlign=top;spacingLeft=4;spacingRight=4;overflow=hidden;rotatable=0;points=[[0,0.5],[1,0.5]];portConstraint=eastwest;whiteSpace=wrap;html=1;" vertex="1" parent="jW8XHMWX3CUndd-du9YS-4">
          <mxGeometry y="104" width="330" height="112" as="geometry" />
        </mxCell>
        <mxCell id="jW8XHMWX3CUndd-du9YS-8" style="edgeStyle=orthogonalEdgeStyle;rounded=0;orthogonalLoop=1;jettySize=auto;html=1;entryX=0;entryY=0.065;entryDx=0;entryDy=0;entryPerimeter=0;exitX=0.991;exitY=0.078;exitDx=0;exitDy=0;exitPerimeter=0;" edge="1" parent="jW8XHMWX3CUndd-du9YS-40" source="jW8XHMWX3CUndd-du9YS-4" target="jW8XHMWX3CUndd-du9YS-0">
          <mxGeometry relative="1" as="geometry" />
        </mxCell>
        <mxCell id="jW8XHMWX3CUndd-du9YS-13" value="&lt;div&gt;Ship&lt;/div&gt;&lt;div&gt;&lt;span style=&quot;font-weight: normal;&quot;&gt;(this class defines the properties of the ship)&lt;/span&gt;&lt;/div&gt;" style="swimlane;fontStyle=1;align=center;verticalAlign=top;childLayout=stackLayout;horizontal=1;startSize=40;horizontalStack=0;resizeParent=1;resizeParentMax=0;resizeLast=0;collapsible=1;marginBottom=0;whiteSpace=wrap;html=1;" vertex="1" parent="jW8XHMWX3CUndd-du9YS-40">
          <mxGeometry x="384" y="876" width="330" height="216" as="geometry">
            <mxRectangle x="1032" y="804" width="290" height="40" as="alternateBounds" />
          </mxGeometry>
        </mxCell>
        <mxCell id="jW8XHMWX3CUndd-du9YS-14" value="- MAX_SHIP_SPEED: double&lt;div&gt;- isAccelerating: boolean&lt;/div&gt;" style="text;strokeColor=none;fillColor=none;align=left;verticalAlign=top;spacingLeft=4;spacingRight=4;overflow=hidden;rotatable=0;points=[[0,0.5],[1,0.5]];portConstraint=eastwest;whiteSpace=wrap;html=1;" vertex="1" parent="jW8XHMWX3CUndd-du9YS-13">
          <mxGeometry y="40" width="330" height="32" as="geometry" />
        </mxCell>
        <mxCell id="jW8XHMWX3CUndd-du9YS-15" value="" style="line;strokeWidth=1;fillColor=none;align=left;verticalAlign=middle;spacingTop=-1;spacingLeft=3;spacingRight=3;rotatable=0;labelPosition=right;points=[];portConstraint=eastwest;strokeColor=inherit;" vertex="1" parent="jW8XHMWX3CUndd-du9YS-13">
          <mxGeometry y="72" width="330" height="8" as="geometry" />
        </mxCell>
        <mxCell id="jW8XHMWX3CUndd-du9YS-16" value="+ move(long, double, double): void&lt;div&gt;&lt;span style=&quot;white-space: pre;&quot;&gt;&#x9;&lt;/span&gt;allows for the displacement of an asteroid&lt;br&gt;&lt;div&gt;+ accelerate(): void&lt;/div&gt;&lt;div&gt;&lt;span style=&quot;white-space: pre;&quot;&gt;&#x9;&lt;/span&gt;moves the ship in whatever direction it is facing&lt;br&gt;&lt;/div&gt;&lt;div&gt;&lt;div&gt;+ decelerate(): void&lt;/div&gt;&lt;div&gt;&lt;span style=&quot;white-space: pre;&quot;&gt;&#x9;&lt;/span&gt;makes the ship slow down to a halt if it is not &lt;span style=&quot;white-space: pre;&quot;&gt;&#x9;&lt;/span&gt;accelerating&lt;/div&gt;&lt;/div&gt;&lt;/div&gt;&lt;div&gt;+ set(double, double, double, double, double): void&lt;/div&gt;&lt;div&gt;&lt;span style=&quot;white-space: pre;&quot;&gt;&#x9;&lt;/span&gt;sets the attributes of the ship&lt;br&gt;&lt;/div&gt;" style="text;strokeColor=none;fillColor=none;align=left;verticalAlign=top;spacingLeft=4;spacingRight=4;overflow=hidden;rotatable=0;points=[[0,0.5],[1,0.5]];portConstraint=eastwest;whiteSpace=wrap;html=1;" vertex="1" parent="jW8XHMWX3CUndd-du9YS-13">
          <mxGeometry y="80" width="330" height="136" as="geometry" />
        </mxCell>
        <mxCell id="jW8XHMWX3CUndd-du9YS-17" style="edgeStyle=orthogonalEdgeStyle;rounded=0;orthogonalLoop=1;jettySize=auto;html=1;exitX=-0.002;exitY=0.075;exitDx=0;exitDy=0;entryX=0.989;entryY=0.127;entryDx=0;entryDy=0;entryPerimeter=0;exitPerimeter=0;" edge="1" parent="jW8XHMWX3CUndd-du9YS-40" source="jW8XHMWX3CUndd-du9YS-4" target="jW8XHMWX3CUndd-du9YS-13">
          <mxGeometry relative="1" as="geometry" />
        </mxCell>
        <mxCell id="jW8XHMWX3CUndd-du9YS-18" value="&lt;div&gt;AlienShip&lt;/div&gt;&lt;div&gt;&lt;span style=&quot;font-weight: normal;&quot;&gt;(this class defines the properties of the alien ship)&lt;/span&gt;&lt;/div&gt;" style="swimlane;fontStyle=1;align=center;verticalAlign=top;childLayout=stackLayout;horizontal=1;startSize=40;horizontalStack=0;resizeParent=1;resizeParentMax=0;resizeLast=0;collapsible=1;marginBottom=0;whiteSpace=wrap;html=1;" vertex="1" parent="jW8XHMWX3CUndd-du9YS-40">
          <mxGeometry x="12" y="576" width="330" height="192" as="geometry">
            <mxRectangle x="1140" y="780" width="290" height="40" as="alternateBounds" />
          </mxGeometry>
        </mxCell>
        <mxCell id="jW8XHMWX3CUndd-du9YS-19" value="- MAX_ALIENSHIP_SPEED: double&lt;div&gt;- id: int&lt;/div&gt;" style="text;strokeColor=none;fillColor=none;align=left;verticalAlign=top;spacingLeft=4;spacingRight=4;overflow=hidden;rotatable=0;points=[[0,0.5],[1,0.5]];portConstraint=eastwest;whiteSpace=wrap;html=1;" vertex="1" parent="jW8XHMWX3CUndd-du9YS-18">
          <mxGeometry y="40" width="330" height="32" as="geometry" />
        </mxCell>
        <mxCell id="jW8XHMWX3CUndd-du9YS-20" value="" style="line;strokeWidth=1;fillColor=none;align=left;verticalAlign=middle;spacingTop=-1;spacingLeft=3;spacingRight=3;rotatable=0;labelPosition=right;points=[];portConstraint=eastwest;strokeColor=inherit;" vertex="1" parent="jW8XHMWX3CUndd-du9YS-18">
          <mxGeometry y="72" width="330" height="8" as="geometry" />
        </mxCell>
        <mxCell id="jW8XHMWX3CUndd-du9YS-21" value="+ move(long, double, double): void&lt;div&gt;&lt;span style=&quot;white-space: pre;&quot;&gt;&#x9;&lt;/span&gt;allows for the displacement of an asteroid&lt;br&gt;&lt;div&gt;+ createRandomAlienShip(): AlienShip&lt;/div&gt;&lt;div&gt;&lt;span style=&quot;white-space: pre;&quot;&gt;&#x9;&lt;/span&gt;creates a new alien ship object with randomized &lt;span style=&quot;white-space: pre;&quot;&gt;&#x9;&lt;/span&gt;parameters&lt;/div&gt;&lt;/div&gt;&lt;div&gt;+ getID(): int&lt;/div&gt;&lt;div&gt;&lt;span style=&quot;white-space: pre;&quot;&gt;&#x9;&lt;/span&gt;returns the id&lt;br&gt;&lt;/div&gt;" style="text;strokeColor=none;fillColor=none;align=left;verticalAlign=top;spacingLeft=4;spacingRight=4;overflow=hidden;rotatable=0;points=[[0,0.5],[1,0.5]];portConstraint=eastwest;whiteSpace=wrap;html=1;" vertex="1" parent="jW8XHMWX3CUndd-du9YS-18">
          <mxGeometry y="80" width="330" height="112" as="geometry" />
        </mxCell>
        <mxCell id="jW8XHMWX3CUndd-du9YS-22" style="edgeStyle=orthogonalEdgeStyle;rounded=0;orthogonalLoop=1;jettySize=auto;html=1;entryX=0.5;entryY=0;entryDx=0;entryDy=0;exitX=0.25;exitY=0;exitDx=0;exitDy=0;" edge="1" parent="jW8XHMWX3CUndd-du9YS-40" source="jW8XHMWX3CUndd-du9YS-4" target="jW8XHMWX3CUndd-du9YS-18">
          <mxGeometry relative="1" as="geometry" />
        </mxCell>
        <mxCell id="jW8XHMWX3CUndd-du9YS-28" style="edgeStyle=orthogonalEdgeStyle;rounded=0;orthogonalLoop=1;jettySize=auto;html=1;exitX=0.25;exitY=0;exitDx=0;exitDy=0;entryX=0.5;entryY=0;entryDx=0;entryDy=0;" edge="1" parent="jW8XHMWX3CUndd-du9YS-40" source="jW8XHMWX3CUndd-du9YS-24" target="jW8XHMWX3CUndd-du9YS-4">
          <mxGeometry relative="1" as="geometry" />
        </mxCell>
        <mxCell id="jW8XHMWX3CUndd-du9YS-24" value="HitBox&lt;div&gt;&lt;span style=&quot;font-weight: normal;&quot;&gt;(this class defines the object used to detect collisions)&lt;/span&gt;&lt;/div&gt;" style="swimlane;fontStyle=1;align=center;verticalAlign=top;childLayout=stackLayout;horizontal=1;startSize=48;horizontalStack=0;resizeParent=1;resizeParentMax=0;resizeLast=0;collapsible=1;marginBottom=0;whiteSpace=wrap;html=1;" vertex="1" parent="jW8XHMWX3CUndd-du9YS-40">
          <mxGeometry x="456" y="288" width="300" height="180" as="geometry" />
        </mxCell>
        <mxCell id="jW8XHMWX3CUndd-du9YS-25" value="+ x, y, width, height: &lt;b&gt;int&lt;/b&gt;&lt;div&gt;+ upperLeft, upperRight, lowerLeft, lowerRight: &lt;b&gt;Point&lt;/b&gt;&lt;/div&gt;" style="text;strokeColor=none;fillColor=none;align=left;verticalAlign=top;spacingLeft=4;spacingRight=4;overflow=hidden;rotatable=0;points=[[0,0.5],[1,0.5]];portConstraint=eastwest;whiteSpace=wrap;html=1;" vertex="1" parent="jW8XHMWX3CUndd-du9YS-24">
          <mxGeometry y="48" width="300" height="36" as="geometry" />
        </mxCell>
        <mxCell id="jW8XHMWX3CUndd-du9YS-26" value="" style="line;strokeWidth=1;fillColor=none;align=left;verticalAlign=middle;spacingTop=-1;spacingLeft=3;spacingRight=3;rotatable=0;labelPosition=right;points=[];portConstraint=eastwest;strokeColor=inherit;" vertex="1" parent="jW8XHMWX3CUndd-du9YS-24">
          <mxGeometry y="84" width="300" height="8" as="geometry" />
        </mxCell>
        <mxCell id="jW8XHMWX3CUndd-du9YS-27" value="+ set(double 4x, Point 4x): void&lt;div&gt;+ moveHitbox(double 2x, long, double 2x): void&lt;/div&gt;&lt;div&gt;+ offset(&lt;span style=&quot;background-color: initial;&quot;&gt;double 2x, long, double 2x): void&lt;/span&gt;&lt;/div&gt;&lt;div&gt;&lt;span style=&quot;background-color: initial;&quot;&gt;+ intersect(HitBox): boolean&lt;/span&gt;&lt;/div&gt;&lt;div&gt;&lt;span style=&quot;background-color: initial;&quot;&gt;+ Accessor Functions&lt;/span&gt;&lt;/div&gt;" style="text;strokeColor=none;fillColor=none;align=left;verticalAlign=top;spacingLeft=4;spacingRight=4;overflow=hidden;rotatable=0;points=[[0,0.5],[1,0.5]];portConstraint=eastwest;whiteSpace=wrap;html=1;" vertex="1" parent="jW8XHMWX3CUndd-du9YS-24">
          <mxGeometry y="92" width="300" height="88" as="geometry" />
        </mxCell>
        <mxCell id="jW8XHMWX3CUndd-du9YS-33" style="edgeStyle=orthogonalEdgeStyle;rounded=0;orthogonalLoop=1;jettySize=auto;html=1;exitX=0.5;exitY=0;exitDx=0;exitDy=0;entryX=0.5;entryY=0;entryDx=0;entryDy=0;" edge="1" parent="jW8XHMWX3CUndd-du9YS-40" source="jW8XHMWX3CUndd-du9YS-29" target="jW8XHMWX3CUndd-du9YS-24">
          <mxGeometry relative="1" as="geometry" />
        </mxCell>
        <mxCell id="jW8XHMWX3CUndd-du9YS-29" value="Point&lt;div&gt;&lt;span style=&quot;font-weight: normal;&quot;&gt;(this class defines the object used by HitBox objects)&lt;/span&gt;&lt;/div&gt;" style="swimlane;fontStyle=1;align=center;verticalAlign=top;childLayout=stackLayout;horizontal=1;startSize=48;horizontalStack=0;resizeParent=1;resizeParentMax=0;resizeLast=0;collapsible=1;marginBottom=0;whiteSpace=wrap;html=1;" vertex="1" parent="jW8XHMWX3CUndd-du9YS-40">
          <mxGeometry x="456" y="60" width="300" height="180" as="geometry" />
        </mxCell>
        <mxCell id="jW8XHMWX3CUndd-du9YS-30" value="+ x, y: &lt;b&gt;int&lt;/b&gt;" style="text;strokeColor=none;fillColor=none;align=left;verticalAlign=top;spacingLeft=4;spacingRight=4;overflow=hidden;rotatable=0;points=[[0,0.5],[1,0.5]];portConstraint=eastwest;whiteSpace=wrap;html=1;" vertex="1" parent="jW8XHMWX3CUndd-du9YS-29">
          <mxGeometry y="48" width="300" height="24" as="geometry" />
        </mxCell>
        <mxCell id="jW8XHMWX3CUndd-du9YS-31" value="" style="line;strokeWidth=1;fillColor=none;align=left;verticalAlign=middle;spacingTop=-1;spacingLeft=3;spacingRight=3;rotatable=0;labelPosition=right;points=[];portConstraint=eastwest;strokeColor=inherit;" vertex="1" parent="jW8XHMWX3CUndd-du9YS-29">
          <mxGeometry y="72" width="300" height="8" as="geometry" />
        </mxCell>
        <mxCell id="jW8XHMWX3CUndd-du9YS-32" value="&lt;div&gt;+ movePoint(double 2x, long, double 2x): void&lt;/div&gt;&lt;div&gt;+ isBelowAndToLeft(&lt;span style=&quot;background-color: initial;&quot;&gt;Point&lt;/span&gt;&lt;span style=&quot;background-color: initial;&quot;&gt;): boolean&lt;/span&gt;&lt;/div&gt;&lt;div&gt;+ isBelowAndToRight(&lt;span style=&quot;background-color: initial;&quot;&gt;Point&lt;/span&gt;&lt;span style=&quot;background-color: initial;&quot;&gt;): boolean&lt;/span&gt;&lt;br&gt;&lt;/div&gt;&lt;div&gt;+ isAboveAndToLeft(&lt;span style=&quot;background-color: initial;&quot;&gt;Point&lt;/span&gt;&lt;span style=&quot;background-color: initial;&quot;&gt;): boolean&lt;/span&gt;&lt;span style=&quot;background-color: initial;&quot;&gt;&lt;br&gt;&lt;/span&gt;&lt;/div&gt;&lt;div&gt;+ isAboveAndToRight(&lt;span style=&quot;background-color: initial;&quot;&gt;Point&lt;/span&gt;&lt;span style=&quot;background-color: initial;&quot;&gt;): boolean&lt;/span&gt;&lt;span style=&quot;background-color: initial;&quot;&gt;&lt;br&gt;&lt;/span&gt;&lt;/div&gt;&lt;div&gt;&lt;span style=&quot;background-color: initial;&quot;&gt;+ Accessor Functions&lt;/span&gt;&lt;/div&gt;" style="text;strokeColor=none;fillColor=none;align=left;verticalAlign=top;spacingLeft=4;spacingRight=4;overflow=hidden;rotatable=0;points=[[0,0.5],[1,0.5]];portConstraint=eastwest;whiteSpace=wrap;html=1;" vertex="1" parent="jW8XHMWX3CUndd-du9YS-29">
          <mxGeometry y="80" width="300" height="100" as="geometry" />
        </mxCell>
        <mxCell id="jW8XHMWX3CUndd-du9YS-34" value="&lt;div&gt;Lazer&lt;/div&gt;&lt;div&gt;&lt;span style=&quot;font-weight: normal;&quot;&gt;(this class defines the properties of a projectile entity that comes out of the ship object)&lt;/span&gt;&lt;/div&gt;" style="swimlane;fontStyle=1;align=center;verticalAlign=top;childLayout=stackLayout;horizontal=1;startSize=60;horizontalStack=0;resizeParent=1;resizeParentMax=0;resizeLast=0;collapsible=1;marginBottom=0;whiteSpace=wrap;html=1;" vertex="1" parent="jW8XHMWX3CUndd-du9YS-40">
          <mxGeometry x="24" y="270" width="384" height="192" as="geometry">
            <mxRectangle x="1488" y="768" width="290" height="40" as="alternateBounds" />
          </mxGeometry>
        </mxCell>
        <mxCell id="jW8XHMWX3CUndd-du9YS-35" value="- xPosition, yPosition, xSpeed, ySpeed, LazerDegrees, radius: double&lt;div&gt;&lt;div&gt;- hitbox: HitBox&lt;/div&gt;&lt;/div&gt;" style="text;strokeColor=none;fillColor=none;align=left;verticalAlign=top;spacingLeft=4;spacingRight=4;overflow=hidden;rotatable=0;points=[[0,0.5],[1,0.5]];portConstraint=eastwest;whiteSpace=wrap;html=1;" vertex="1" parent="jW8XHMWX3CUndd-du9YS-34">
          <mxGeometry y="60" width="384" height="36" as="geometry" />
        </mxCell>
        <mxCell id="jW8XHMWX3CUndd-du9YS-36" value="" style="line;strokeWidth=1;fillColor=none;align=left;verticalAlign=middle;spacingTop=-1;spacingLeft=3;spacingRight=3;rotatable=0;labelPosition=right;points=[];portConstraint=eastwest;strokeColor=inherit;" vertex="1" parent="jW8XHMWX3CUndd-du9YS-34">
          <mxGeometry y="96" width="384" height="8" as="geometry" />
        </mxCell>
        <mxCell id="jW8XHMWX3CUndd-du9YS-37" value="+ move(long, double, double): void&lt;div&gt;&lt;span style=&quot;white-space: pre;&quot;&gt;&#x9;&lt;/span&gt;allows for the displacement of the lazer&lt;br&gt;&lt;div&gt;+ createLazer(double 3x): Lazer&lt;/div&gt;&lt;/div&gt;&lt;div&gt;&lt;span style=&quot;white-space: pre;&quot;&gt;&#x9;&lt;/span&gt;create a new lazer projectile object on top of the ship&lt;br&gt;&lt;/div&gt;&lt;div&gt;+ Accessor Functions&lt;/div&gt;" style="text;strokeColor=none;fillColor=none;align=left;verticalAlign=top;spacingLeft=4;spacingRight=4;overflow=hidden;rotatable=0;points=[[0,0.5],[1,0.5]];portConstraint=eastwest;whiteSpace=wrap;html=1;" vertex="1" parent="jW8XHMWX3CUndd-du9YS-34">
          <mxGeometry y="104" width="384" height="88" as="geometry" />
        </mxCell>
        <mxCell id="jW8XHMWX3CUndd-du9YS-39" value="Objects &#xa;(every possible object that can appear in game)" style="swimlane;fontStyle=1;startSize=36;" vertex="1" parent="jW8XHMWX3CUndd-du9YS-40">
          <mxGeometry width="1116" height="1104" as="geometry" />
        </mxCell>
        <mxCell id="jW8XHMWX3CUndd-du9YS-58" value="Score&lt;div&gt;&lt;span style=&quot;font-weight: normal;&quot;&gt;(this class defines the object that keeps track of the game score)&lt;/span&gt;&lt;/div&gt;" style="swimlane;fontStyle=1;align=center;verticalAlign=top;childLayout=stackLayout;horizontal=1;startSize=51;horizontalStack=0;resizeParent=1;resizeParentMax=0;resizeLast=0;collapsible=1;marginBottom=0;whiteSpace=wrap;html=1;" vertex="1" parent="jW8XHMWX3CUndd-du9YS-39">
          <mxGeometry x="24" y="51" width="408" height="168" as="geometry" />
        </mxCell>
        <mxCell id="jW8XHMWX3CUndd-du9YS-59" value="+ totalPoints, smallAsteroidsHit, mediumAsteroidsHit, largeAsteroidsHit, alienShipsHit: &lt;b&gt;int&lt;/b&gt;&lt;div&gt;+ smallMultiplier, medium&lt;span style=&quot;background-color: initial;&quot;&gt;Multiplier, large&lt;/span&gt;&lt;span style=&quot;background-color: initial;&quot;&gt;Multiplier, alien&lt;/span&gt;&lt;span style=&quot;background-color: initial;&quot;&gt;Multiplier: &lt;b&gt;final int&lt;/b&gt;&lt;/span&gt;&lt;/div&gt;" style="text;strokeColor=none;fillColor=none;align=left;verticalAlign=top;spacingLeft=4;spacingRight=4;overflow=hidden;rotatable=0;points=[[0,0.5],[1,0.5]];portConstraint=eastwest;whiteSpace=wrap;html=1;" vertex="1" parent="jW8XHMWX3CUndd-du9YS-58">
          <mxGeometry y="51" width="408" height="57" as="geometry" />
        </mxCell>
        <mxCell id="jW8XHMWX3CUndd-du9YS-60" value="" style="line;strokeWidth=1;fillColor=none;align=left;verticalAlign=middle;spacingTop=-1;spacingLeft=3;spacingRight=3;rotatable=0;labelPosition=right;points=[];portConstraint=eastwest;strokeColor=inherit;" vertex="1" parent="jW8XHMWX3CUndd-du9YS-58">
          <mxGeometry y="108" width="408" height="8" as="geometry" />
        </mxCell>
        <mxCell id="jW8XHMWX3CUndd-du9YS-61" value="+ addScore(int 4x): void&lt;div&gt;+ toString Function&lt;br&gt;&lt;div&gt;+ Accessor Functions&lt;/div&gt;&lt;/div&gt;" style="text;strokeColor=none;fillColor=none;align=left;verticalAlign=top;spacingLeft=4;spacingRight=4;overflow=hidden;rotatable=0;points=[[0,0.5],[1,0.5]];portConstraint=eastwest;whiteSpace=wrap;html=1;" vertex="1" parent="jW8XHMWX3CUndd-du9YS-58">
          <mxGeometry y="116" width="408" height="52" as="geometry" />
        </mxCell>
        <mxCell id="jW8XHMWX3CUndd-du9YS-41" value="Object Derived Classes&#xa;(class that rely on object classes to function)" style="swimlane;startSize=36;" vertex="1" parent="WIyWlLk6GJQsqaUBKTNV-1">
          <mxGeometry x="1548" y="276" width="1000" height="792" as="geometry" />
        </mxCell>
        <mxCell id="jW8XHMWX3CUndd-du9YS-42" value="World&lt;div&gt;&lt;span style=&quot;font-weight: normal;&quot;&gt;(this class describes the physics of the game)&lt;/span&gt;&lt;/div&gt;" style="swimlane;fontStyle=1;align=center;verticalAlign=top;childLayout=stackLayout;horizontal=1;startSize=36;horizontalStack=0;resizeParent=1;resizeParentMax=0;resizeLast=0;collapsible=1;marginBottom=0;whiteSpace=wrap;html=1;" vertex="1" parent="jW8XHMWX3CUndd-du9YS-41">
          <mxGeometry x="372" y="300" width="296" height="396" as="geometry" />
        </mxCell>
        <mxCell id="jW8XHMWX3CUndd-du9YS-43" value="+ asteroids: AsteroidSet&lt;div&gt;+ mediumAsteroids: AsteroidSetMedium&lt;/div&gt;&lt;div&gt;+ smallAsteroids: AsteroidSetSmall&lt;/div&gt;&lt;div&gt;+ alienShips: AlienShipSet&lt;/div&gt;&lt;div&gt;+ ship: Ship&lt;/div&gt;&lt;div&gt;+ lazers: Lazers&lt;/div&gt;&lt;div&gt;+ currAsteroidCount, additionalAsteroidCount, numOfLives: &lt;b&gt;int&lt;/b&gt;&lt;/div&gt;&lt;div&gt;+ scoreboard: Score&lt;/div&gt;&lt;div&gt;+ X_DIMENSION, Y_DIMENSION, NUM_OF_LAZERS, INITIAL_NUMBER_OF_ASTEROIDS: &lt;b&gt;final int&lt;/b&gt;&lt;/div&gt;" style="text;strokeColor=none;fillColor=none;align=left;verticalAlign=top;spacingLeft=4;spacingRight=4;overflow=hidden;rotatable=0;points=[[0,0.5],[1,0.5]];portConstraint=eastwest;whiteSpace=wrap;html=1;" vertex="1" parent="jW8XHMWX3CUndd-du9YS-42">
          <mxGeometry y="36" width="296" height="180" as="geometry" />
        </mxCell>
        <mxCell id="jW8XHMWX3CUndd-du9YS-44" value="" style="line;strokeWidth=1;fillColor=none;align=left;verticalAlign=middle;spacingTop=-1;spacingLeft=3;spacingRight=3;rotatable=0;labelPosition=right;points=[];portConstraint=eastwest;strokeColor=inherit;" vertex="1" parent="jW8XHMWX3CUndd-du9YS-42">
          <mxGeometry y="216" width="296" height="8" as="geometry" />
        </mxCell>
        <mxCell id="jW8XHMWX3CUndd-du9YS-45" value="+ run(long): void&lt;div&gt;+ shipCollisionDetect(): boolean&lt;/div&gt;&lt;div&gt;+ asteroidCollisionDetect(): void&lt;/div&gt;&lt;div&gt;+ mediumAsteroidCollisionDetect(): void&lt;br&gt;&lt;/div&gt;&lt;div&gt;+ smallAsteroidCollisionDetect(): void&lt;br&gt;&lt;/div&gt;&lt;div&gt;+ alienShipCollisionDetect(): void&lt;br&gt;&lt;/div&gt;&lt;div&gt;+ respawnAsteroids(): void&lt;/div&gt;&lt;div&gt;+ respawnShip(): void&lt;/div&gt;&lt;div&gt;+ decrementLives(): void&lt;/div&gt;&lt;div&gt;+ incrementLives(): void&lt;/div&gt;&lt;div&gt;+ Accessor Functions&lt;/div&gt;" style="text;strokeColor=none;fillColor=none;align=left;verticalAlign=top;spacingLeft=4;spacingRight=4;overflow=hidden;rotatable=0;points=[[0,0.5],[1,0.5]];portConstraint=eastwest;whiteSpace=wrap;html=1;" vertex="1" parent="jW8XHMWX3CUndd-du9YS-42">
          <mxGeometry y="224" width="296" height="172" as="geometry" />
        </mxCell>
        <mxCell id="jW8XHMWX3CUndd-du9YS-74" style="edgeStyle=orthogonalEdgeStyle;rounded=0;orthogonalLoop=1;jettySize=auto;html=1;exitX=1;exitY=0.25;exitDx=0;exitDy=0;" edge="1" parent="jW8XHMWX3CUndd-du9YS-41" source="jW8XHMWX3CUndd-du9YS-46">
          <mxGeometry relative="1" as="geometry">
            <mxPoint x="372" y="324" as="targetPoint" />
            <Array as="points">
              <mxPoint x="348" y="108" />
              <mxPoint x="348" y="324" />
            </Array>
          </mxGeometry>
        </mxCell>
        <mxCell id="jW8XHMWX3CUndd-du9YS-46" value="AsteroidSet&lt;div&gt;&lt;span style=&quot;font-weight: normal;&quot;&gt;(this class defines the collective set of&amp;nbsp; asteroids in game)&lt;/span&gt;&lt;br&gt;&lt;div&gt;&lt;span style=&quot;color: rgba(0, 0, 0, 0); font-family: monospace; font-size: 0px; font-weight: 400; text-align: start; text-wrap: nowrap;&quot;&gt;%3CmxGraphModel%3E%3Croot%3E%3CmxCell%20id%3D%220%22%2F%3E%3CmxCell%20id%3D%221%22%20parent%3D%220%22%2F%3E%3CmxCell%20id%3D%222%22%20value%3D%22World%22%20style%3D%22swimlane%3BfontStyle%3D1%3Balign%3Dcenter%3BverticalAlign%3Dtop%3BchildLayout%3DstackLayout%3Bhorizontal%3D1%3BstartSize%3D26%3BhorizontalStack%3D0%3BresizeParent%3D1%3BresizeParentMax%3D0%3BresizeLast%3D0%3Bcollapsible%3D1%3BmarginBottom%3D0%3BwhiteSpace%3Dwrap%3Bhtml%3D1%3B%22%20vertex%3D%221%22%20parent%3D%221%22%3E%3CmxGeometry%20x%3D%221644%22%20y%3D%22367%22%20width%3D%22160%22%20height%3D%2286%22%20as%3D%22geometry%22%2F%3E%3C%2FmxCell%3E%3CmxCell%20id%3D%223%22%20value%3D%22%2B%20field%3A%20type%22%20style%3D%22text%3BstrokeColor%3Dnone%3BfillColor%3Dnone%3Balign%3Dleft%3BverticalAlign%3Dtop%3BspacingLeft%3D4%3BspacingRight%3D4%3Boverflow%3Dhidden%3Brotatable%3D0%3Bpoints%3D%5B%5B0%2C0.5%5D%2C%5B1%2C0.5%5D%5D%3BportConstraint%3Deastwest%3BwhiteSpace%3Dwrap%3Bhtml%3D1%3B%22%20vertex%3D%221%22%20parent%3D%222%22%3E%3CmxGeometry%20y%3D%2226%22%20width%3D%22160%22%20height%3D%2226%22%20as%3D%22geometry%22%2F%3E%3C%2FmxCell%3E%3CmxCell%20id%3D%224%22%20value%3D%22%22%20style%3D%22line%3BstrokeWidth%3D1%3BfillColor%3Dnone%3Balign%3Dleft%3BverticalAlign%3Dmiddle%3BspacingTop%3D-1%3BspacingLeft%3D3%3BspacingRight%3D3%3Brotatable%3D0%3BlabelPosition%3Dright%3Bpoints%3D%5B%5D%3BportConstraint%3Deastwest%3BstrokeColor%3Dinherit%3B%22%20vertex%3D%221%22%20parent%3D%222%22%3E%3CmxGeometry%20y%3D%2252%22%20width%3D%22160%22%20height%3D%228%22%20as%3D%22geometry%22%2F%3E%3C%2FmxCell%3E%3CmxCell%20id%3D%225%22%20value%3D%22%2B%20method(type)%3A%20type%22%20style%3D%22text%3BstrokeColor%3Dnone%3BfillColor%3Dnone%3Balign%3Dleft%3BverticalAlign%3Dtop%3BspacingLeft%3D4%3BspacingRight%3D4%3Boverflow%3Dhidden%3Brotatable%3D0%3Bpoints%3D%5B%5B0%2C0.5%5D%2C%5B1%2C0.5%5D%5D%3BportConstraint%3Deastwest%3BwhiteSpace%3Dwrap%3Bhtml%3D1%3B%22%20vertex%3D%221%22%20parent%3D%222%22%3E%3CmxGeometry%20y%3D%2260%22%20width%3D%22160%22%20height%3D%2226%22%20as%3D%22geometry%22%2F%3E%3C%2FmxCell%3E%3C%2Froot%3E%3C%2FmxGraphModel%3E&lt;/span&gt;&lt;/div&gt;&lt;/div&gt;" style="swimlane;fontStyle=1;align=center;verticalAlign=top;childLayout=stackLayout;horizontal=1;startSize=60;horizontalStack=0;resizeParent=1;resizeParentMax=0;resizeLast=0;collapsible=1;marginBottom=0;whiteSpace=wrap;html=1;" vertex="1" parent="jW8XHMWX3CUndd-du9YS-41">
          <mxGeometry x="24" y="60" width="288" height="192" as="geometry" />
        </mxCell>
        <mxCell id="jW8XHMWX3CUndd-du9YS-47" value="+ asteroidSet: HashSet&amp;lt;Asteroid&amp;gt;&lt;div&gt;+ rand: Random&lt;/div&gt;" style="text;strokeColor=none;fillColor=none;align=left;verticalAlign=top;spacingLeft=4;spacingRight=4;overflow=hidden;rotatable=0;points=[[0,0.5],[1,0.5]];portConstraint=eastwest;whiteSpace=wrap;html=1;" vertex="1" parent="jW8XHMWX3CUndd-du9YS-46">
          <mxGeometry y="60" width="288" height="36" as="geometry" />
        </mxCell>
        <mxCell id="jW8XHMWX3CUndd-du9YS-48" value="" style="line;strokeWidth=1;fillColor=none;align=left;verticalAlign=middle;spacingTop=-1;spacingLeft=3;spacingRight=3;rotatable=0;labelPosition=right;points=[];portConstraint=eastwest;strokeColor=inherit;" vertex="1" parent="jW8XHMWX3CUndd-du9YS-46">
          <mxGeometry y="96" width="288" height="8" as="geometry" />
        </mxCell>
        <mxCell id="jW8XHMWX3CUndd-du9YS-49" value="+ move(long, double 2x): void&lt;div&gt;+ deleteAsteroid(): void&lt;/div&gt;&lt;div&gt;+ deleteSpecificAsteroid(int): void&lt;/div&gt;&lt;div&gt;+ addAsteroid(): void&lt;/div&gt;&lt;div&gt;+ Accessor Functions&lt;/div&gt;" style="text;strokeColor=none;fillColor=none;align=left;verticalAlign=top;spacingLeft=4;spacingRight=4;overflow=hidden;rotatable=0;points=[[0,0.5],[1,0.5]];portConstraint=eastwest;whiteSpace=wrap;html=1;" vertex="1" parent="jW8XHMWX3CUndd-du9YS-46">
          <mxGeometry y="104" width="288" height="88" as="geometry" />
        </mxCell>
        <mxCell id="jW8XHMWX3CUndd-du9YS-54" value="Lazers" style="swimlane;fontStyle=1;align=center;verticalAlign=top;childLayout=stackLayout;horizontal=1;startSize=26;horizontalStack=0;resizeParent=1;resizeParentMax=0;resizeLast=0;collapsible=1;marginBottom=0;whiteSpace=wrap;html=1;" vertex="1" parent="jW8XHMWX3CUndd-du9YS-41">
          <mxGeometry x="712" y="192" width="216" height="132" as="geometry" />
        </mxCell>
        <mxCell id="jW8XHMWX3CUndd-du9YS-55" value="+ lazers: HashSet&amp;lt;Lazer&amp;gt;" style="text;strokeColor=none;fillColor=none;align=left;verticalAlign=top;spacingLeft=4;spacingRight=4;overflow=hidden;rotatable=0;points=[[0,0.5],[1,0.5]];portConstraint=eastwest;whiteSpace=wrap;html=1;" vertex="1" parent="jW8XHMWX3CUndd-du9YS-54">
          <mxGeometry y="26" width="216" height="26" as="geometry" />
        </mxCell>
        <mxCell id="jW8XHMWX3CUndd-du9YS-56" value="" style="line;strokeWidth=1;fillColor=none;align=left;verticalAlign=middle;spacingTop=-1;spacingLeft=3;spacingRight=3;rotatable=0;labelPosition=right;points=[];portConstraint=eastwest;strokeColor=inherit;" vertex="1" parent="jW8XHMWX3CUndd-du9YS-54">
          <mxGeometry y="52" width="216" height="8" as="geometry" />
        </mxCell>
        <mxCell id="jW8XHMWX3CUndd-du9YS-57" value="+ move(long, double 2x): void&lt;div&gt;+ deleteLazer(): void&lt;/div&gt;&lt;div&gt;+ addLazer(): void&lt;/div&gt;&lt;div&gt;+ Accessor Functions&lt;/div&gt;" style="text;strokeColor=none;fillColor=none;align=left;verticalAlign=top;spacingLeft=4;spacingRight=4;overflow=hidden;rotatable=0;points=[[0,0.5],[1,0.5]];portConstraint=eastwest;whiteSpace=wrap;html=1;" vertex="1" parent="jW8XHMWX3CUndd-du9YS-54">
          <mxGeometry y="60" width="216" height="72" as="geometry" />
        </mxCell>
        <mxCell id="jW8XHMWX3CUndd-du9YS-76" style="edgeStyle=orthogonalEdgeStyle;rounded=0;orthogonalLoop=1;jettySize=auto;html=1;exitX=0;exitY=0.25;exitDx=0;exitDy=0;entryX=0.75;entryY=0;entryDx=0;entryDy=0;" edge="1" parent="jW8XHMWX3CUndd-du9YS-41" source="jW8XHMWX3CUndd-du9YS-50" target="jW8XHMWX3CUndd-du9YS-42">
          <mxGeometry relative="1" as="geometry" />
        </mxCell>
        <mxCell id="jW8XHMWX3CUndd-du9YS-50" value="AlienShipSet&lt;span style=&quot;color: rgba(0, 0, 0, 0); font-family: monospace; font-size: 0px; font-weight: 400; text-align: start; text-wrap: nowrap;&quot;&gt;%3CmxGraphModel%3E%3Croot%3E%3CmxCell%20id%3D%220%22%2F%3E%3CmxCell%20id%3D%221%22%20parent%3D%220%22%2F%3E%3CmxCell%20id%3D%222%22%20value%3D%22World%22%20style%3D%22swimlane%3BfontStyle%3D1%3Balign%3Dcenter%3BverticalAlign%3Dtop%3BchildLayout%3DstackLayout%3Bhorizontal%3D1%3BstartSize%3D26%3BhorizontalStack%3D0%3BresizeParent%3D1%3BresizeParentMax%3D0%3BresizeLast%3D0%3Bcollapsible%3D1%3BmarginBottom%3D0%3BwhiteSpace%3Dwrap%3Bhtml%3D1%3B%22%20vertex%3D%221%22%20parent%3D%221%22%3E%3CmxGeometry%20x%3D%221644%22%20y%3D%22367%22%20width%3D%22160%22%20height%3D%2286%22%20as%3D%22geometry%22%2F%3E%3C%2FmxCell%3E%3CmxCell%20id%3D%223%22%20value%3D%22%2B%20field%3A%20type%22%20style%3D%22text%3BstrokeColor%3Dnone%3BfillColor%3Dnone%3Balign%3Dleft%3BverticalAlign%3Dtop%3BspacingLeft%3D4%3BspacingRight%3D4%3Boverflow%3Dhidden%3Brotatable%3D0%3Bpoints%3D%5B%5B0%2C0.5%5D%2C%5B1%2C0.5%5D%5D%3BportConstraint%3Deastwest%3BwhiteSpace%3Dwrap%3Bhtml%3D1%3B%22%20vertex%3D%221%22%20parent%3D%222%22%3E%3CmxGeometry%20y%3D%2226%22%20width%3D%22160%22%20height%3D%2226%22%20as%3D%22geometry%22%2F%3E%3C%2FmxCell%3E%3CmxCell%20id%3D%224%22%20value%3D%22%22%20style%3D%22line%3BstrokeWidth%3D1%3BfillColor%3Dnone%3Balign%3Dleft%3BverticalAlign%3Dmiddle%3BspacingTop%3D-1%3BspacingLeft%3D3%3BspacingRight%3D3%3Brotatable%3D0%3BlabelPosition%3Dright%3Bpoints%3D%5B%5D%3BportConstraint%3Deastwest%3BstrokeColor%3Dinherit%3B%22%20vertex%3D%221%22%20parent%3D%222%22%3E%3CmxGeometry%20y%3D%2252%22%20width%3D%22160%22%20height%3D%228%22%20as%3D%22geometry%22%2F%3E%3C%2FmxCell%3E%3CmxCell%20id%3D%225%22%20value%3D%22%2B%20method(type)%3A%20type%22%20style%3D%22text%3BstrokeColor%3Dnone%3BfillColor%3Dnone%3Balign%3Dleft%3BverticalAlign%3Dtop%3BspacingLeft%3D4%3BspacingRight%3D4%3Boverflow%3Dhidden%3Brotatable%3D0%3Bpoints%3D%5B%5B0%2C0.5%5D%2C%5B1%2C0.5%5D%5D%3BportConstraint%3Deastwest%3BwhiteSpace%3Dwrap%3Bhtml%3D1%3B%22%20vertex%3D%221%22%20parent%3D%222%22%3E%3CmxGeometry%20y%3D%2260%22%20width%3D%22160%22%20height%3D%2226%22%20as%3D%22geometry%22%2F%3E%3C%2FmxCell%3E%3C%2Froot%3E%3C%2FmxGraphModel%3E&lt;/span&gt;" style="swimlane;fontStyle=1;align=center;verticalAlign=top;childLayout=stackLayout;horizontal=1;startSize=26;horizontalStack=0;resizeParent=1;resizeParentMax=0;resizeLast=0;collapsible=1;marginBottom=0;whiteSpace=wrap;html=1;" vertex="1" parent="jW8XHMWX3CUndd-du9YS-41">
          <mxGeometry x="712" y="348" width="212" height="152" as="geometry" />
        </mxCell>
        <mxCell id="jW8XHMWX3CUndd-du9YS-51" value="+ alienShipSet: HashSet&amp;lt;AlienShip&amp;gt;&lt;div&gt;+ rand: Random&lt;/div&gt;" style="text;strokeColor=none;fillColor=none;align=left;verticalAlign=top;spacingLeft=4;spacingRight=4;overflow=hidden;rotatable=0;points=[[0,0.5],[1,0.5]];portConstraint=eastwest;whiteSpace=wrap;html=1;" vertex="1" parent="jW8XHMWX3CUndd-du9YS-50">
          <mxGeometry y="26" width="212" height="34" as="geometry" />
        </mxCell>
        <mxCell id="jW8XHMWX3CUndd-du9YS-52" value="" style="line;strokeWidth=1;fillColor=none;align=left;verticalAlign=middle;spacingTop=-1;spacingLeft=3;spacingRight=3;rotatable=0;labelPosition=right;points=[];portConstraint=eastwest;strokeColor=inherit;" vertex="1" parent="jW8XHMWX3CUndd-du9YS-50">
          <mxGeometry y="60" width="212" height="8" as="geometry" />
        </mxCell>
        <mxCell id="jW8XHMWX3CUndd-du9YS-53" value="+ move(long, double 2x): void&lt;div&gt;+ deleteAlienShip(): void&lt;/div&gt;&lt;div&gt;+ deleteSpecificAlie&lt;span style=&quot;background-color: initial;&quot;&gt;nShip(int): void&lt;/span&gt;&lt;/div&gt;&lt;div&gt;+ addAlienShip(): void&lt;/div&gt;&lt;div&gt;+ Accessor Functions&lt;/div&gt;" style="text;strokeColor=none;fillColor=none;align=left;verticalAlign=top;spacingLeft=4;spacingRight=4;overflow=hidden;rotatable=0;points=[[0,0.5],[1,0.5]];portConstraint=eastwest;whiteSpace=wrap;html=1;" vertex="1" parent="jW8XHMWX3CUndd-du9YS-50">
          <mxGeometry y="68" width="212" height="84" as="geometry" />
        </mxCell>
        <mxCell id="jW8XHMWX3CUndd-du9YS-73" style="edgeStyle=orthogonalEdgeStyle;rounded=0;orthogonalLoop=1;jettySize=auto;html=1;exitX=1;exitY=0.25;exitDx=0;exitDy=0;" edge="1" parent="jW8XHMWX3CUndd-du9YS-41" source="jW8XHMWX3CUndd-du9YS-62">
          <mxGeometry relative="1" as="geometry">
            <mxPoint x="372" y="324" as="targetPoint" />
            <Array as="points">
              <mxPoint x="348" y="384" />
              <mxPoint x="348" y="324" />
            </Array>
          </mxGeometry>
        </mxCell>
        <mxCell id="jW8XHMWX3CUndd-du9YS-62" value="AsteroidSetMedium&lt;span style=&quot;color: rgba(0, 0, 0, 0); font-family: monospace; font-size: 0px; font-weight: 400; text-align: start; text-wrap: nowrap;&quot;&gt;%3CmxGraphModel%3E%3Croot%3E%3CmxCell%20id%3D%220%22%2F%3E%3CmxCell%20id%3D%221%22%20parent%3D%220%22%2F%3E%3CmxCell%20id%3D%222%22%20value%3D%22AsteroidSet%26lt%3Bdiv%26gt%3B%26lt%3Bspan%20style%3D%26quot%3Bfont-weight%3A%20normal%3B%26quot%3B%26gt%3B(this%20class%20defines%20the%20collective%20set%20of%26amp%3Bnbsp%3B%20asteroids%20in%20game)%26lt%3B%2Fspan%26gt%3B%26lt%3Bbr%26gt%3B%26lt%3Bdiv%26gt%3B%26lt%3Bspan%20style%3D%26quot%3Bcolor%3A%20rgba(0%2C%200%2C%200%2C%200)%3B%20font-family%3A%20monospace%3B%20font-size%3A%200px%3B%20font-weight%3A%20400%3B%20text-align%3A%20start%3B%20text-wrap%3A%20nowrap%3B%26quot%3B%26gt%3B%253CmxGraphModel%253E%253Croot%253E%253CmxCell%2520id%253D%25220%2522%252F%253E%253CmxCell%2520id%253D%25221%2522%2520parent%253D%25220%2522%252F%253E%253CmxCell%2520id%253D%25222%2522%2520value%253D%2522World%2522%2520style%253D%2522swimlane%253BfontStyle%253D1%253Balign%253Dcenter%253BverticalAlign%253Dtop%253BchildLayout%253DstackLayout%253Bhorizontal%253D1%253BstartSize%253D26%253BhorizontalStack%253D0%253BresizeParent%253D1%253BresizeParentMax%253D0%253BresizeLast%253D0%253Bcollapsible%253D1%253BmarginBottom%253D0%253BwhiteSpace%253Dwrap%253Bhtml%253D1%253B%2522%2520vertex%253D%25221%2522%2520parent%253D%25221%2522%253E%253CmxGeometry%2520x%253D%25221644%2522%2520y%253D%2522367%2522%2520width%253D%2522160%2522%2520height%253D%252286%2522%2520as%253D%2522geometry%2522%252F%253E%253C%252FmxCell%253E%253CmxCell%2520id%253D%25223%2522%2520value%253D%2522%252B%2520field%253A%2520type%2522%2520style%253D%2522text%253BstrokeColor%253Dnone%253BfillColor%253Dnone%253Balign%253Dleft%253BverticalAlign%253Dtop%253BspacingLeft%253D4%253BspacingRight%253D4%253Boverflow%253Dhidden%253Brotatable%253D0%253Bpoints%253D%255B%255B0%252C0.5%255D%252C%255B1%252C0.5%255D%255D%253BportConstraint%253Deastwest%253BwhiteSpace%253Dwrap%253Bhtml%253D1%253B%2522%2520vertex%253D%25221%2522%2520parent%253D%25222%2522%253E%253CmxGeometry%2520y%253D%252226%2522%2520width%253D%2522160%2522%2520height%253D%252226%2522%2520as%253D%2522geometry%2522%252F%253E%253C%252FmxCell%253E%253CmxCell%2520id%253D%25224%2522%2520value%253D%2522%2522%2520style%253D%2522line%253BstrokeWidth%253D1%253BfillColor%253Dnone%253Balign%253Dleft%253BverticalAlign%253Dmiddle%253BspacingTop%253D-1%253BspacingLeft%253D3%253BspacingRight%253D3%253Brotatable%253D0%253BlabelPosition%253Dright%253Bpoints%253D%255B%255D%253BportConstraint%253Deastwest%253BstrokeColor%253Dinherit%253B%2522%2520vertex%253D%25221%2522%2520parent%253D%25222%2522%253E%253CmxGeometry%2520y%253D%252252%2522%2520width%253D%2522160%2522%2520height%253D%25228%2522%2520as%253D%2522geometry%2522%252F%253E%253C%252FmxCell%253E%253CmxCell%2520id%253D%25225%2522%2520value%253D%2522%252B%2520method(type)%253A%2520type%2522%2520style%253D%2522text%253BstrokeColor%253Dnone%253BfillColor%253Dnone%253Balign%253Dleft%253BverticalAlign%253Dtop%253BspacingLeft%253D4%253BspacingRight%253D4%253Boverflow%253Dhidden%253Brotatable%253D0%253Bpoints%253D%255B%255B0%252C0.5%255D%252C%255B1%252C0.5%255D%255D%253BportConstraint%253Deastwest%253BwhiteSpace%253Dwrap%253Bhtml%253D1%253B%2522%2520vertex%253D%25221%2522%2520parent%253D%25222%2522%253E%253CmxGeometry%2520y%253D%252260%2522%2520width%253D%2522160%2522%2520height%253D%252226%2522%2520as%253D%2522geometry%2522%252F%253E%253C%252FmxCell%253E%253C%252Froot%253E%253C%252FmxGraphModel%253E%26lt%3B%2Fspan%26gt%3B%26lt%3B%2Fdiv%26gt%3B%26lt%3B%2Fdiv%26gt%3B%22%20style%3D%22swimlane%3BfontStyle%3D1%3Balign%3Dcenter%3BverticalAlign%3Dtop%3BchildLayout%3DstackLayout%3Bhorizontal%3D1%3BstartSize%3D60%3BhorizontalStack%3D0%3BresizeParent%3D1%3BresizeParentMax%3D0%3BresizeLast%3D0%3Bcollapsible%3D1%3BmarginBottom%3D0%3BwhiteSpace%3Dwrap%3Bhtml%3D1%3B%22%20vertex%3D%221%22%20parent%3D%221%22%3E%3CmxGeometry%20x%3D%221572%22%20y%3D%22336%22%20width%3D%22288%22%20height%3D%22192%22%20as%3D%22geometry%22%2F%3E%3C%2FmxCell%3E%3CmxCell%20id%3D%223%22%20value%3D%22%2B%20asteroidSet%3A%20HashSet%26amp%3Blt%3BAsteroid%26amp%3Bgt%3B%26lt%3Bdiv%26gt%3B%2B%20rand%3A%20Random%26lt%3B%2Fdiv%26gt%3B%22%20style%3D%22text%3BstrokeColor%3Dnone%3BfillColor%3Dnone%3Balign%3Dleft%3BverticalAlign%3Dtop%3BspacingLeft%3D4%3BspacingRight%3D4%3Boverflow%3Dhidden%3Brotatable%3D0%3Bpoints%3D%5B%5B0%2C0.5%5D%2C%5B1%2C0.5%5D%5D%3BportConstraint%3Deastwest%3BwhiteSpace%3Dwrap%3Bhtml%3D1%3B%22%20vertex%3D%221%22%20parent%3D%222%22%3E%3CmxGeometry%20y%3D%2260%22%20width%3D%22288%22%20height%3D%2236%22%20as%3D%22geometry%22%2F%3E%3C%2FmxCell%3E%3CmxCell%20id%3D%224%22%20value%3D%22%22%20style%3D%22line%3BstrokeWidth%3D1%3BfillColor%3Dnone%3Balign%3Dleft%3BverticalAlign%3Dmiddle%3BspacingTop%3D-1%3BspacingLeft%3D3%3BspacingRight%3D3%3Brotatable%3D0%3BlabelPosition%3Dright%3Bpoints%3D%5B%5D%3BportConstraint%3Deastwest%3BstrokeColor%3Dinherit%3B%22%20vertex%3D%221%22%20parent%3D%222%22%3E%3CmxGeometry%20y%3D%2296%22%20width%3D%22288%22%20height%3D%228%22%20as%3D%22geometry%22%2F%3E%3C%2FmxCell%3E%3CmxCell%20id%3D%225%22%20value%3D%22%2B%20move(long%2C%20double%202x)%3A%20void%26lt%3Bdiv%26gt%3B%2B%20deleteAsteroid()%3A%20void%26lt%3B%2Fdiv%26gt%3B%26lt%3Bdiv%26gt%3B%2B%20deleteSpecificAsteroid(int)%3A%20void%26lt%3B%2Fdiv%26gt%3B%26lt%3Bdiv%26gt%3B%2B%20addAsteroid()%3A%20void%26lt%3B%2Fdiv%26gt%3B%26lt%3Bdiv%26gt%3B%2B%20Accessor%20Functions%26lt%3B%2Fdiv%26gt%3B%22%20style%3D%22text%3BstrokeColor%3Dnone%3BfillColor%3Dnone%3Balign%3Dleft%3BverticalAlign%3Dtop%3BspacingLeft%3D4%3BspacingRight%3D4%3Boverflow%3Dhidden%3Brotatable%3D0%3Bpoints%3D%5B%5B0%2C0.5%5D%2C%5B1%2C0.5%5D%5D%3BportConstraint%3Deastwest%3BwhiteSpace%3Dwrap%3Bhtml%3D1%3B%22%20vertex%3D%221%22%20parent%3D%222%22%3E%3CmxGeometry%20y%3D%22104%22%20width%3D%22288%22%20height%3D%2288%22%20as%3D%22geometry%22%2F%3E%3C%2FmxCell%3E%3C%2Froot%3E%3C%2FmxGraphModel%3E&lt;/span&gt;&lt;div&gt;&lt;span style=&quot;font-weight: normal;&quot;&gt;(this class defines the collective set of medium asteroids in game)&lt;/span&gt;&lt;br&gt;&lt;div&gt;&lt;span style=&quot;color: rgba(0, 0, 0, 0); font-family: monospace; font-size: 0px; font-weight: 400; text-align: start; text-wrap: nowrap;&quot;&gt;%3CmxGraphModel%3E%3Croot%3E%3CmxCell%20id%3D%220%22%2F%3E%3CmxCell%20id%3D%221%22%20parent%3D%220%22%2F%3E%3CmxCell%20id%3D%222%22%20value%3D%22World%22%20style%3D%22swimlane%3BfontStyle%3D1%3Balign%3Dcenter%3BverticalAlign%3Dtop%3BchildLayout%3DstackLayout%3Bhorizontal%3D1%3BstartSize%3D26%3BhorizontalStack%3D0%3BresizeParent%3D1%3BresizeParentMax%3D0%3BresizeLast%3D0%3Bcollapsible%3D1%3BmarginBottom%3D0%3BwhiteSpace%3Dwrap%3Bhtml%3D1%3B%22%20vertex%3D%221%22%20parent%3D%221%22%3E%3CmxGeometry%20x%3D%221644%22%20y%3D%22367%22%20width%3D%22160%22%20height%3D%2286%22%20as%3D%22geometry%22%2F%3E%3C%2FmxCell%3E%3CmxCell%20id%3D%223%22%20value%3D%22%2B%20field%3A%20type%22%20style%3D%22text%3BstrokeColor%3Dnone%3BfillColor%3Dnone%3Balign%3Dleft%3BverticalAlign%3Dtop%3BspacingLeft%3D4%3BspacingRight%3D4%3Boverflow%3Dhidden%3Brotatable%3D0%3Bpoints%3D%5B%5B0%2C0.5%5D%2C%5B1%2C0.5%5D%5D%3BportConstraint%3Deastwest%3BwhiteSpace%3Dwrap%3Bhtml%3D1%3B%22%20vertex%3D%221%22%20parent%3D%222%22%3E%3CmxGeometry%20y%3D%2226%22%20width%3D%22160%22%20height%3D%2226%22%20as%3D%22geometry%22%2F%3E%3C%2FmxCell%3E%3CmxCell%20id%3D%224%22%20value%3D%22%22%20style%3D%22line%3BstrokeWidth%3D1%3BfillColor%3Dnone%3Balign%3Dleft%3BverticalAlign%3Dmiddle%3BspacingTop%3D-1%3BspacingLeft%3D3%3BspacingRight%3D3%3Brotatable%3D0%3BlabelPosition%3Dright%3Bpoints%3D%5B%5D%3BportConstraint%3Deastwest%3BstrokeColor%3Dinherit%3B%22%20vertex%3D%221%22%20parent%3D%222%22%3E%3CmxGeometry%20y%3D%2252%22%20width%3D%22160%22%20height%3D%228%22%20as%3D%22geometry%22%2F%3E%3C%2FmxCell%3E%3CmxCell%20id%3D%225%22%20value%3D%22%2B%20method(type)%3A%20type%22%20style%3D%22text%3BstrokeColor%3Dnone%3BfillColor%3Dnone%3Balign%3Dleft%3BverticalAlign%3Dtop%3BspacingLeft%3D4%3BspacingRight%3D4%3Boverflow%3Dhidden%3Brotatable%3D0%3Bpoints%3D%5B%5B0%2C0.5%5D%2C%5B1%2C0.5%5D%5D%3BportConstraint%3Deastwest%3BwhiteSpace%3Dwrap%3Bhtml%3D1%3B%22%20vertex%3D%221%22%20parent%3D%222%22%3E%3CmxGeometry%20y%3D%2260%22%20width%3D%22160%22%20height%3D%2226%22%20as%3D%22geometry%22%2F%3E%3C%2FmxCell%3E%3C%2Froot%3E%3C%2FmxGraphModel%3E&lt;/span&gt;&lt;/div&gt;&lt;/div&gt;" style="swimlane;fontStyle=1;align=center;verticalAlign=top;childLayout=stackLayout;horizontal=1;startSize=60;horizontalStack=0;resizeParent=1;resizeParentMax=0;resizeLast=0;collapsible=1;marginBottom=0;whiteSpace=wrap;html=1;" vertex="1" parent="jW8XHMWX3CUndd-du9YS-41">
          <mxGeometry x="24" y="336" width="288" height="192" as="geometry" />
        </mxCell>
        <mxCell id="jW8XHMWX3CUndd-du9YS-63" value="+ asteroidSet: HashSet&amp;lt;Asteroid&amp;gt;&lt;div&gt;+ rand: Random&lt;/div&gt;" style="text;strokeColor=none;fillColor=none;align=left;verticalAlign=top;spacingLeft=4;spacingRight=4;overflow=hidden;rotatable=0;points=[[0,0.5],[1,0.5]];portConstraint=eastwest;whiteSpace=wrap;html=1;" vertex="1" parent="jW8XHMWX3CUndd-du9YS-62">
          <mxGeometry y="60" width="288" height="36" as="geometry" />
        </mxCell>
        <mxCell id="jW8XHMWX3CUndd-du9YS-64" value="" style="line;strokeWidth=1;fillColor=none;align=left;verticalAlign=middle;spacingTop=-1;spacingLeft=3;spacingRight=3;rotatable=0;labelPosition=right;points=[];portConstraint=eastwest;strokeColor=inherit;" vertex="1" parent="jW8XHMWX3CUndd-du9YS-62">
          <mxGeometry y="96" width="288" height="8" as="geometry" />
        </mxCell>
        <mxCell id="jW8XHMWX3CUndd-du9YS-65" value="+ move(long, double 2x): void&lt;div&gt;+ deleteAsteroid(): void&lt;/div&gt;&lt;div&gt;+ deleteSpecificAsteroid(int): void&lt;/div&gt;&lt;div&gt;+ addAsteroid(): void&lt;/div&gt;&lt;div&gt;+ Accessor Functions&lt;/div&gt;" style="text;strokeColor=none;fillColor=none;align=left;verticalAlign=top;spacingLeft=4;spacingRight=4;overflow=hidden;rotatable=0;points=[[0,0.5],[1,0.5]];portConstraint=eastwest;whiteSpace=wrap;html=1;" vertex="1" parent="jW8XHMWX3CUndd-du9YS-62">
          <mxGeometry y="104" width="288" height="88" as="geometry" />
        </mxCell>
        <mxCell id="jW8XHMWX3CUndd-du9YS-66" value="AsteroidSetSmall&lt;div&gt;&lt;span style=&quot;font-weight: normal;&quot;&gt;(this class defines the collective set of small asteroids in game)&lt;/span&gt;&lt;br&gt;&lt;div&gt;&lt;span style=&quot;color: rgba(0, 0, 0, 0); font-family: monospace; font-size: 0px; font-weight: 400; text-align: start; text-wrap: nowrap;&quot;&gt;%3CmxGraphModel%3E%3Croot%3E%3CmxCell%20id%3D%220%22%2F%3E%3CmxCell%20id%3D%221%22%20parent%3D%220%22%2F%3E%3CmxCell%20id%3D%222%22%20value%3D%22World%22%20style%3D%22swimlane%3BfontStyle%3D1%3Balign%3Dcenter%3BverticalAlign%3Dtop%3BchildLayout%3DstackLayout%3Bhorizontal%3D1%3BstartSize%3D26%3BhorizontalStack%3D0%3BresizeParent%3D1%3BresizeParentMax%3D0%3BresizeLast%3D0%3Bcollapsible%3D1%3BmarginBottom%3D0%3BwhiteSpace%3Dwrap%3Bhtml%3D1%3B%22%20vertex%3D%221%22%20parent%3D%221%22%3E%3CmxGeometry%20x%3D%221644%22%20y%3D%22367%22%20width%3D%22160%22%20height%3D%2286%22%20as%3D%22geometry%22%2F%3E%3C%2FmxCell%3E%3CmxCell%20id%3D%223%22%20value%3D%22%2B%20field%3A%20type%22%20style%3D%22text%3BstrokeColor%3Dnone%3BfillColor%3Dnone%3Balign%3Dleft%3BverticalAlign%3Dtop%3BspacingLeft%3D4%3BspacingRight%3D4%3Boverflow%3Dhidden%3Brotatable%3D0%3Bpoints%3D%5B%5B0%2C0.5%5D%2C%5B1%2C0.5%5D%5D%3BportConstraint%3Deastwest%3BwhiteSpace%3Dwrap%3Bhtml%3D1%3B%22%20vertex%3D%221%22%20parent%3D%222%22%3E%3CmxGeometry%20y%3D%2226%22%20width%3D%22160%22%20height%3D%2226%22%20as%3D%22geometry%22%2F%3E%3C%2FmxCell%3E%3CmxCell%20id%3D%224%22%20value%3D%22%22%20style%3D%22line%3BstrokeWidth%3D1%3BfillColor%3Dnone%3Balign%3Dleft%3BverticalAlign%3Dmiddle%3BspacingTop%3D-1%3BspacingLeft%3D3%3BspacingRight%3D3%3Brotatable%3D0%3BlabelPosition%3Dright%3Bpoints%3D%5B%5D%3BportConstraint%3Deastwest%3BstrokeColor%3Dinherit%3B%22%20vertex%3D%221%22%20parent%3D%222%22%3E%3CmxGeometry%20y%3D%2252%22%20width%3D%22160%22%20height%3D%228%22%20as%3D%22geometry%22%2F%3E%3C%2FmxCell%3E%3CmxCell%20id%3D%225%22%20value%3D%22%2B%20method(type)%3A%20type%22%20style%3D%22text%3BstrokeColor%3Dnone%3BfillColor%3Dnone%3Balign%3Dleft%3BverticalAlign%3Dtop%3BspacingLeft%3D4%3BspacingRight%3D4%3Boverflow%3Dhidden%3Brotatable%3D0%3Bpoints%3D%5B%5B0%2C0.5%5D%2C%5B1%2C0.5%5D%5D%3BportConstraint%3Deastwest%3BwhiteSpace%3Dwrap%3Bhtml%3D1%3B%22%20vertex%3D%221%22%20parent%3D%222%22%3E%3CmxGeometry%20y%3D%2260%22%20width%3D%22160%22%20height%3D%2226%22%20as%3D%22geometry%22%2F%3E%3C%2FmxCell%3E%3C%2Froot%3E%3C%2FmxGraphModel%3E&lt;/span&gt;&lt;/div&gt;&lt;/div&gt;" style="swimlane;fontStyle=1;align=center;verticalAlign=top;childLayout=stackLayout;horizontal=1;startSize=60;horizontalStack=0;resizeParent=1;resizeParentMax=0;resizeLast=0;collapsible=1;marginBottom=0;whiteSpace=wrap;html=1;" vertex="1" parent="jW8XHMWX3CUndd-du9YS-41">
          <mxGeometry x="24" y="576" width="288" height="192" as="geometry" />
        </mxCell>
        <mxCell id="jW8XHMWX3CUndd-du9YS-67" value="+ asteroidSet: HashSet&amp;lt;Asteroid&amp;gt;&lt;div&gt;+ rand: Random&lt;/div&gt;" style="text;strokeColor=none;fillColor=none;align=left;verticalAlign=top;spacingLeft=4;spacingRight=4;overflow=hidden;rotatable=0;points=[[0,0.5],[1,0.5]];portConstraint=eastwest;whiteSpace=wrap;html=1;" vertex="1" parent="jW8XHMWX3CUndd-du9YS-66">
          <mxGeometry y="60" width="288" height="36" as="geometry" />
        </mxCell>
        <mxCell id="jW8XHMWX3CUndd-du9YS-68" value="" style="line;strokeWidth=1;fillColor=none;align=left;verticalAlign=middle;spacingTop=-1;spacingLeft=3;spacingRight=3;rotatable=0;labelPosition=right;points=[];portConstraint=eastwest;strokeColor=inherit;" vertex="1" parent="jW8XHMWX3CUndd-du9YS-66">
          <mxGeometry y="96" width="288" height="8" as="geometry" />
        </mxCell>
        <mxCell id="jW8XHMWX3CUndd-du9YS-69" value="+ move(long, double 2x): void&lt;div&gt;+ deleteAsteroid(): void&lt;/div&gt;&lt;div&gt;+ deleteSpecificAsteroid(int): void&lt;/div&gt;&lt;div&gt;+ addAsteroid(): void&lt;/div&gt;&lt;div&gt;+ Accessor Functions&lt;/div&gt;" style="text;strokeColor=none;fillColor=none;align=left;verticalAlign=top;spacingLeft=4;spacingRight=4;overflow=hidden;rotatable=0;points=[[0,0.5],[1,0.5]];portConstraint=eastwest;whiteSpace=wrap;html=1;" vertex="1" parent="jW8XHMWX3CUndd-du9YS-66">
          <mxGeometry y="104" width="288" height="88" as="geometry" />
        </mxCell>
        <mxCell id="jW8XHMWX3CUndd-du9YS-70" style="edgeStyle=orthogonalEdgeStyle;rounded=0;orthogonalLoop=1;jettySize=auto;html=1;exitX=1;exitY=0.5;exitDx=0;exitDy=0;entryX=0.5;entryY=0;entryDx=0;entryDy=0;" edge="1" parent="jW8XHMWX3CUndd-du9YS-41" source="jW8XHMWX3CUndd-du9YS-49" target="jW8XHMWX3CUndd-du9YS-62">
          <mxGeometry relative="1" as="geometry">
            <Array as="points">
              <mxPoint x="324" y="208" />
              <mxPoint x="324" y="272" />
              <mxPoint x="168" y="272" />
            </Array>
          </mxGeometry>
        </mxCell>
        <mxCell id="jW8XHMWX3CUndd-du9YS-71" style="edgeStyle=orthogonalEdgeStyle;rounded=0;orthogonalLoop=1;jettySize=auto;html=1;exitX=1;exitY=0.5;exitDx=0;exitDy=0;entryX=0.5;entryY=0;entryDx=0;entryDy=0;" edge="1" parent="jW8XHMWX3CUndd-du9YS-41" source="jW8XHMWX3CUndd-du9YS-49" target="jW8XHMWX3CUndd-du9YS-66">
          <mxGeometry relative="1" as="geometry">
            <Array as="points">
              <mxPoint x="332" y="208" />
              <mxPoint x="332" y="552" />
              <mxPoint x="168" y="552" />
            </Array>
          </mxGeometry>
        </mxCell>
        <mxCell id="jW8XHMWX3CUndd-du9YS-72" style="edgeStyle=orthogonalEdgeStyle;rounded=0;orthogonalLoop=1;jettySize=auto;html=1;exitX=1;exitY=0.25;exitDx=0;exitDy=0;entryX=-0.008;entryY=0.047;entryDx=0;entryDy=0;entryPerimeter=0;" edge="1" parent="jW8XHMWX3CUndd-du9YS-41" source="jW8XHMWX3CUndd-du9YS-66" target="jW8XHMWX3CUndd-du9YS-42">
          <mxGeometry relative="1" as="geometry">
            <Array as="points">
              <mxPoint x="348" y="624" />
              <mxPoint x="348" y="324" />
              <mxPoint x="370" y="324" />
            </Array>
          </mxGeometry>
        </mxCell>
        <mxCell id="jW8XHMWX3CUndd-du9YS-75" style="edgeStyle=orthogonalEdgeStyle;rounded=0;orthogonalLoop=1;jettySize=auto;html=1;exitX=0;exitY=0.5;exitDx=0;exitDy=0;entryX=0.75;entryY=0;entryDx=0;entryDy=0;" edge="1" parent="jW8XHMWX3CUndd-du9YS-41" source="jW8XHMWX3CUndd-du9YS-55" target="jW8XHMWX3CUndd-du9YS-42">
          <mxGeometry relative="1" as="geometry" />
        </mxCell>
        <mxCell id="jW8XHMWX3CUndd-du9YS-77" value="Front-End Classes&#xa;(class that use the object-derived classes to create visual feedback for the game)" style="swimlane;startSize=36;" vertex="1" parent="WIyWlLk6GJQsqaUBKTNV-1">
          <mxGeometry x="1536" y="1116" width="960" height="792" as="geometry" />
        </mxCell>
        <mxCell id="jW8XHMWX3CUndd-du9YS-110" style="edgeStyle=orthogonalEdgeStyle;rounded=0;orthogonalLoop=1;jettySize=auto;html=1;exitX=0;exitY=0.25;exitDx=0;exitDy=0;entryX=0.75;entryY=0;entryDx=0;entryDy=0;" edge="1" parent="jW8XHMWX3CUndd-du9YS-77" source="jW8XHMWX3CUndd-du9YS-87" target="jW8XHMWX3CUndd-du9YS-78">
          <mxGeometry relative="1" as="geometry" />
        </mxCell>
        <mxCell id="jW8XHMWX3CUndd-du9YS-87" value="KeyPressHandler" style="swimlane;fontStyle=1;align=center;verticalAlign=top;childLayout=stackLayout;horizontal=1;startSize=26;horizontalStack=0;resizeParent=1;resizeParentMax=0;resizeLast=0;collapsible=1;marginBottom=0;whiteSpace=wrap;html=1;" vertex="1" parent="jW8XHMWX3CUndd-du9YS-77">
          <mxGeometry x="712" y="192" width="216" height="132" as="geometry" />
        </mxCell>
        <mxCell id="jW8XHMWX3CUndd-du9YS-88" value="+ lazers: HashSet&amp;lt;Lazer&amp;gt;" style="text;strokeColor=none;fillColor=none;align=left;verticalAlign=top;spacingLeft=4;spacingRight=4;overflow=hidden;rotatable=0;points=[[0,0.5],[1,0.5]];portConstraint=eastwest;whiteSpace=wrap;html=1;" vertex="1" parent="jW8XHMWX3CUndd-du9YS-87">
          <mxGeometry y="26" width="216" height="26" as="geometry" />
        </mxCell>
        <mxCell id="jW8XHMWX3CUndd-du9YS-89" value="" style="line;strokeWidth=1;fillColor=none;align=left;verticalAlign=middle;spacingTop=-1;spacingLeft=3;spacingRight=3;rotatable=0;labelPosition=right;points=[];portConstraint=eastwest;strokeColor=inherit;" vertex="1" parent="jW8XHMWX3CUndd-du9YS-87">
          <mxGeometry y="52" width="216" height="8" as="geometry" />
        </mxCell>
        <mxCell id="jW8XHMWX3CUndd-du9YS-90" value="+ move(long, double 2x): void&lt;div&gt;+ deleteLazer(): void&lt;/div&gt;&lt;div&gt;+ addLazer(): void&lt;/div&gt;&lt;div&gt;+ Accessor Functions&lt;/div&gt;" style="text;strokeColor=none;fillColor=none;align=left;verticalAlign=top;spacingLeft=4;spacingRight=4;overflow=hidden;rotatable=0;points=[[0,0.5],[1,0.5]];portConstraint=eastwest;whiteSpace=wrap;html=1;" vertex="1" parent="jW8XHMWX3CUndd-du9YS-87">
          <mxGeometry y="60" width="216" height="72" as="geometry" />
        </mxCell>
        <mxCell id="jW8XHMWX3CUndd-du9YS-92" value="KeyReleaseHandler" style="swimlane;fontStyle=1;align=center;verticalAlign=top;childLayout=stackLayout;horizontal=1;startSize=26;horizontalStack=0;resizeParent=1;resizeParentMax=0;resizeLast=0;collapsible=1;marginBottom=0;whiteSpace=wrap;html=1;" vertex="1" parent="jW8XHMWX3CUndd-du9YS-77">
          <mxGeometry x="712" y="348" width="212" height="152" as="geometry" />
        </mxCell>
        <mxCell id="jW8XHMWX3CUndd-du9YS-93" value="+ alienShipSet: HashSet&amp;lt;AlienShip&amp;gt;&lt;div&gt;+ rand: Random&lt;/div&gt;" style="text;strokeColor=none;fillColor=none;align=left;verticalAlign=top;spacingLeft=4;spacingRight=4;overflow=hidden;rotatable=0;points=[[0,0.5],[1,0.5]];portConstraint=eastwest;whiteSpace=wrap;html=1;" vertex="1" parent="jW8XHMWX3CUndd-du9YS-92">
          <mxGeometry y="26" width="212" height="34" as="geometry" />
        </mxCell>
        <mxCell id="jW8XHMWX3CUndd-du9YS-94" value="" style="line;strokeWidth=1;fillColor=none;align=left;verticalAlign=middle;spacingTop=-1;spacingLeft=3;spacingRight=3;rotatable=0;labelPosition=right;points=[];portConstraint=eastwest;strokeColor=inherit;" vertex="1" parent="jW8XHMWX3CUndd-du9YS-92">
          <mxGeometry y="60" width="212" height="8" as="geometry" />
        </mxCell>
        <mxCell id="jW8XHMWX3CUndd-du9YS-95" value="+ move(long, double 2x): void&lt;div&gt;+ deleteAlienShip(): void&lt;/div&gt;&lt;div&gt;+ deleteSpecificAlie&lt;span style=&quot;background-color: initial;&quot;&gt;nShip(int): void&lt;/span&gt;&lt;/div&gt;&lt;div&gt;+ addAlienShip(): void&lt;/div&gt;&lt;div&gt;+ Accessor Functions&lt;/div&gt;" style="text;strokeColor=none;fillColor=none;align=left;verticalAlign=top;spacingLeft=4;spacingRight=4;overflow=hidden;rotatable=0;points=[[0,0.5],[1,0.5]];portConstraint=eastwest;whiteSpace=wrap;html=1;" vertex="1" parent="jW8XHMWX3CUndd-du9YS-92">
          <mxGeometry y="68" width="212" height="84" as="geometry" />
        </mxCell>
        <mxCell id="jW8XHMWX3CUndd-du9YS-130" style="edgeStyle=orthogonalEdgeStyle;rounded=0;orthogonalLoop=1;jettySize=auto;html=1;exitX=0.25;exitY=0;exitDx=0;exitDy=0;entryX=0.5;entryY=0;entryDx=0;entryDy=0;" edge="1" parent="jW8XHMWX3CUndd-du9YS-77" source="jW8XHMWX3CUndd-du9YS-78" target="jW8XHMWX3CUndd-du9YS-125">
          <mxGeometry relative="1" as="geometry" />
        </mxCell>
        <mxCell id="jW8XHMWX3CUndd-du9YS-78" value="&lt;div&gt;Presentation&lt;/div&gt;&lt;div&gt;&lt;span style=&quot;font-weight: normal;&quot;&gt;(this class displays everything that happens during gameplay)&lt;/span&gt;&lt;/div&gt;" style="swimlane;fontStyle=1;align=center;verticalAlign=top;childLayout=stackLayout;horizontal=1;startSize=48;horizontalStack=0;resizeParent=1;resizeParentMax=0;resizeLast=0;collapsible=1;marginBottom=0;whiteSpace=wrap;html=1;" vertex="1" parent="jW8XHMWX3CUndd-du9YS-77">
          <mxGeometry x="276" y="116" width="372" height="516" as="geometry" />
        </mxCell>
        <mxCell id="jW8XHMWX3CUndd-du9YS-79" value="+ stage: &lt;b&gt;Stage&lt;/b&gt;&lt;div&gt;+ world:&lt;b&gt; World&lt;/b&gt;&lt;/div&gt;&lt;div&gt;+ root: &lt;b&gt;Group&lt;/b&gt;&lt;/div&gt;&lt;div&gt;+ scene: &lt;b&gt;Scene&lt;/b&gt;&lt;/div&gt;&lt;div&gt;+ canvas: &lt;b&gt;Canvas&lt;/b&gt;&lt;/div&gt;&lt;div&gt;+ graphicsContext: &lt;b&gt;GraphicsContext&lt;/b&gt;&lt;/div&gt;&lt;div&gt;+ canvasXDimension, canvasYDimension: &lt;b&gt;double&lt;/b&gt;&lt;/div&gt;&lt;div&gt;+ CANVAS_SCALE, ASTEROID_SCALE, MEDIUM_ASTEROID_SCALE, SMALL_ASTEROID_SCALE: &lt;b&gt;final double&lt;/b&gt;&lt;/div&gt;&lt;div&gt;+ toggleHitbox: &lt;b&gt;boolean&lt;/b&gt;&lt;/div&gt;" style="text;strokeColor=none;fillColor=none;align=left;verticalAlign=top;spacingLeft=4;spacingRight=4;overflow=hidden;rotatable=0;points=[[0,0.5],[1,0.5]];portConstraint=eastwest;whiteSpace=wrap;html=1;" vertex="1" parent="jW8XHMWX3CUndd-du9YS-78">
          <mxGeometry y="48" width="372" height="168" as="geometry" />
        </mxCell>
        <mxCell id="jW8XHMWX3CUndd-du9YS-80" value="" style="line;strokeWidth=1;fillColor=none;align=left;verticalAlign=middle;spacingTop=-1;spacingLeft=3;spacingRight=3;rotatable=0;labelPosition=right;points=[];portConstraint=eastwest;strokeColor=inherit;" vertex="1" parent="jW8XHMWX3CUndd-du9YS-78">
          <mxGeometry y="216" width="372" height="8" as="geometry" />
        </mxCell>
        <mxCell id="jW8XHMWX3CUndd-du9YS-81" value="+ render(): &lt;b&gt;void&lt;/b&gt;&lt;div&gt;+ renderShip(): &lt;b&gt;void&lt;/b&gt;&lt;/div&gt;&lt;div&gt;+ renderAsteroids(): &lt;b&gt;void&lt;/b&gt;&lt;/div&gt;&lt;div&gt;+ renderMediumAsteroids(): &lt;b&gt;void&lt;/b&gt;&lt;br&gt;&lt;/div&gt;&lt;div&gt;+ renderSmallAsteroids(): &lt;b&gt;void&lt;/b&gt;&lt;br&gt;&lt;/div&gt;&lt;div&gt;+ renderAlienShips(): &lt;b&gt;void&lt;/b&gt;&lt;br&gt;&lt;/div&gt;&lt;div&gt;+ renderLives(): &lt;b&gt;void&lt;/b&gt;&lt;/div&gt;&lt;div&gt;+ renderScore(): &lt;b&gt;void&lt;/b&gt;&lt;/div&gt;&lt;div&gt;+ drawAsteroid(): &lt;b&gt;void&lt;/b&gt;&lt;/div&gt;&lt;div&gt;+ drawMediumAsteroid(): &lt;b&gt;void&lt;/b&gt;&lt;/div&gt;&lt;div&gt;+ drawSmallAsteroid():&amp;nbsp;&lt;b&gt;void&lt;/b&gt;&lt;b&gt;&lt;br&gt;&lt;/b&gt;&lt;/div&gt;&lt;div&gt;+ drawShip():&amp;nbsp;&lt;b&gt;void&lt;/b&gt;&lt;b&gt;&lt;br&gt;&lt;/b&gt;&lt;/div&gt;&lt;div&gt;+ drawLazer():&amp;nbsp;&lt;b&gt;void&lt;/b&gt;&lt;b&gt;&lt;br&gt;&lt;/b&gt;&lt;/div&gt;&lt;div&gt;+ drawAlienShip():&amp;nbsp;&lt;b&gt;void&lt;/b&gt;&lt;b&gt;&lt;br&gt;&lt;/b&gt;&lt;/div&gt;&lt;div&gt;+ drawMediumAsteroid():&amp;nbsp;&lt;b&gt;void&lt;/b&gt;&lt;b&gt;&lt;br&gt;&lt;/b&gt;&lt;/div&gt;&lt;div&gt;+ drawHitbox():&amp;nbsp;&lt;b&gt;void&lt;/b&gt;&lt;b&gt;&lt;br&gt;&lt;/b&gt;&lt;/div&gt;&lt;div&gt;+ drawScore(): &lt;b&gt;void&lt;/b&gt;&lt;/div&gt;&lt;div&gt;+ convertPhysicsScaletoPresentationScale(double):&amp;nbsp;&lt;b&gt;double&lt;/b&gt;&lt;b&gt;&lt;br&gt;&lt;/b&gt;&lt;/div&gt;&lt;div&gt;+ convertPhysicsOriginToPresentationOrigin(double):&amp;nbsp;&lt;b&gt;double&lt;/b&gt;&lt;/div&gt;" style="text;strokeColor=none;fillColor=none;align=left;verticalAlign=top;spacingLeft=4;spacingRight=4;overflow=hidden;rotatable=0;points=[[0,0.5],[1,0.5]];portConstraint=eastwest;whiteSpace=wrap;html=1;" vertex="1" parent="jW8XHMWX3CUndd-du9YS-78">
          <mxGeometry y="224" width="372" height="292" as="geometry" />
        </mxCell>
        <mxCell id="jW8XHMWX3CUndd-du9YS-111" style="edgeStyle=orthogonalEdgeStyle;rounded=0;orthogonalLoop=1;jettySize=auto;html=1;exitX=0;exitY=0.5;exitDx=0;exitDy=0;entryX=0.738;entryY=-0.001;entryDx=0;entryDy=0;entryPerimeter=0;" edge="1" parent="jW8XHMWX3CUndd-du9YS-77" source="jW8XHMWX3CUndd-du9YS-93" target="jW8XHMWX3CUndd-du9YS-78">
          <mxGeometry relative="1" as="geometry">
            <mxPoint x="552" y="108" as="targetPoint" />
            <Array as="points">
              <mxPoint x="672" y="391" />
              <mxPoint x="672" y="96" />
              <mxPoint x="552" y="96" />
              <mxPoint x="552" y="115" />
            </Array>
          </mxGeometry>
        </mxCell>
        <mxCell id="jW8XHMWX3CUndd-du9YS-121" value="WorldController&lt;div&gt;(This class starts the game)&lt;/div&gt;" style="swimlane;fontStyle=0;childLayout=stackLayout;horizontal=1;startSize=36;fillColor=none;horizontalStack=0;resizeParent=1;resizeParentMax=0;resizeLast=0;collapsible=1;marginBottom=0;whiteSpace=wrap;html=1;" vertex="1" parent="jW8XHMWX3CUndd-du9YS-77">
          <mxGeometry x="72" y="600" width="156" height="88" as="geometry" />
        </mxCell>
        <mxCell id="jW8XHMWX3CUndd-du9YS-122" value="+ main(String[]) : void" style="text;strokeColor=none;fillColor=none;align=left;verticalAlign=top;spacingLeft=4;spacingRight=4;overflow=hidden;rotatable=0;points=[[0,0.5],[1,0.5]];portConstraint=eastwest;whiteSpace=wrap;html=1;" vertex="1" parent="jW8XHMWX3CUndd-du9YS-121">
          <mxGeometry y="36" width="156" height="26" as="geometry" />
        </mxCell>
        <mxCell id="jW8XHMWX3CUndd-du9YS-123" value="+ start(Stage): void" style="text;strokeColor=none;fillColor=none;align=left;verticalAlign=top;spacingLeft=4;spacingRight=4;overflow=hidden;rotatable=0;points=[[0,0.5],[1,0.5]];portConstraint=eastwest;whiteSpace=wrap;html=1;" vertex="1" parent="jW8XHMWX3CUndd-du9YS-121">
          <mxGeometry y="62" width="156" height="26" as="geometry" />
        </mxCell>
        <mxCell id="jW8XHMWX3CUndd-du9YS-125" value="GameLoop&lt;div&gt;&lt;span style=&quot;font-weight: normal;&quot;&gt;(this class allows the game to keep running once it starts)&lt;/span&gt;&lt;/div&gt;" style="swimlane;fontStyle=1;align=center;verticalAlign=top;childLayout=stackLayout;horizontal=1;startSize=48;horizontalStack=0;resizeParent=1;resizeParentMax=0;resizeLast=0;collapsible=1;marginBottom=0;whiteSpace=wrap;html=1;" vertex="1" parent="jW8XHMWX3CUndd-du9YS-77">
          <mxGeometry x="24" y="240" width="228" height="132" as="geometry" />
        </mxCell>
        <mxCell id="jW8XHMWX3CUndd-du9YS-126" value="+ world: World&lt;div&gt;+ presentation: Presentation&lt;/div&gt;&lt;div&gt;+ lastTime: long&lt;/div&gt;" style="text;strokeColor=none;fillColor=none;align=left;verticalAlign=top;spacingLeft=4;spacingRight=4;overflow=hidden;rotatable=0;points=[[0,0.5],[1,0.5]];portConstraint=eastwest;whiteSpace=wrap;html=1;" vertex="1" parent="jW8XHMWX3CUndd-du9YS-125">
          <mxGeometry y="48" width="228" height="48" as="geometry" />
        </mxCell>
        <mxCell id="jW8XHMWX3CUndd-du9YS-127" value="" style="line;strokeWidth=1;fillColor=none;align=left;verticalAlign=middle;spacingTop=-1;spacingLeft=3;spacingRight=3;rotatable=0;labelPosition=right;points=[];portConstraint=eastwest;strokeColor=inherit;" vertex="1" parent="jW8XHMWX3CUndd-du9YS-125">
          <mxGeometry y="96" width="228" height="8" as="geometry" />
        </mxCell>
        <mxCell id="jW8XHMWX3CUndd-du9YS-128" value="+ handle(long): void" style="text;strokeColor=none;fillColor=none;align=left;verticalAlign=top;spacingLeft=4;spacingRight=4;overflow=hidden;rotatable=0;points=[[0,0.5],[1,0.5]];portConstraint=eastwest;whiteSpace=wrap;html=1;" vertex="1" parent="jW8XHMWX3CUndd-du9YS-125">
          <mxGeometry y="104" width="228" height="28" as="geometry" />
        </mxCell>
        <mxCell id="jW8XHMWX3CUndd-du9YS-129" style="edgeStyle=orthogonalEdgeStyle;rounded=0;orthogonalLoop=1;jettySize=auto;html=1;exitX=0.5;exitY=1;exitDx=0;exitDy=0;entryX=0.421;entryY=-0.009;entryDx=0;entryDy=0;entryPerimeter=0;" edge="1" parent="jW8XHMWX3CUndd-du9YS-77" source="jW8XHMWX3CUndd-du9YS-125" target="jW8XHMWX3CUndd-du9YS-121">
          <mxGeometry relative="1" as="geometry" />
        </mxCell>
      </root>
    </mxGraphModel>
  </diagram>
</mxfile>
